#define bullet_width 8
#define bullet_height 7
static unsigned char bullet_bits[] = {
   0x04, 0x0c, 0x1c, 0x3c, 0x1c, 0x0c, 0x04 };
